<svg id="visual" viewBox="0 0 900 600" width="900" height="600" xmlns="http://www.w3.org/2000/svg" xmlns:xlink="http://www.w3.org/1999/xlink" version="1.1"><rect x="0" y="0" width="900" height="600" fill="#FFFFFF"></rect><path d="M0 468L21.5 458C43 448 86 428 128.8 435.8C171.7 443.7 214.3 479.3 257.2 476C300 472.7 343 430.3 385.8 408.5C428.7 386.7 471.3 385.3 514.2 392.3C557 399.3 600 414.7 642.8 431.2C685.7 447.7 728.3 465.3 771.2 463.2C814 461 857 439 878.5 428L900 417L900 601L878.5 601C857 601 814 601 771.2 601C728.3 601 685.7 601 642.8 601C600 601 557 601 514.2 601C471.3 601 428.7 601 385.8 601C343 601 300 601 257.2 601C214.3 601 171.7 601 128.8 601C86 601 43 601 21.5 601L0 601Z" fill="#622ac2" stroke-linecap="round" stroke-linejoin="miter"></path></svg>